<?xml version="1.0" standalone="no"?>
<!DOCTYPE svg PUBLIC "-//W3C//DTD SVG 20010904//EN"
 "http://www.w3.org/TR/2001/REC-SVG-20010904/DTD/svg10.dtd">
<svg version="1.0" xmlns="http://www.w3.org/2000/svg"
 width="129.000000pt" height="129.000000pt" viewBox="0 0 129.000000 129.000000"
 preserveAspectRatio="xMidYMid meet">
<metadata>
Created by potrace 1.14, written by Peter Selinger 2001-2017
</metadata>
<g transform="translate(0.000000,129.000000) scale(0.100000,-0.100000)"
fill="#000000" stroke="none">
<path d="M120 1263 c-36 -18 -65 -43 -85 -71 l-30 -44 -3 -471 c-2 -353 0
-483 9 -517 17 -58 82 -125 139 -140 28 -8 192 -11 501 -11 451 -1 460 0 504
21 53 26 101 81 115 130 15 53 13 933 -2 983 -12 40 -63 100 -108 127 -21 13
-100 15 -505 18 l-480 3 -55 -28z"/>
</g>
</svg>
