<svg width="104" height="107" viewBox="0 0 104 107" fill="none" xmlns="http://www.w3.org/2000/svg">
<mask id="mask0_29_5" style="mask-type:alpha" maskUnits="userSpaceOnUse" x="23" y="0" width="81" height="107">
<rect width="51.4715" height="94.741" transform="matrix(0.944225 -0.329301 0.328829 0.944389 23.9418 16.9496)" fill="#C4C4C4"/>
</mask>
<g mask="url(#mask0_29_5)">
<path d="M56.5173 26.0703C62.8319 26.0703 68.3502 27.3218 73.0719 29.825C77.7937 32.3281 81.4346 35.8552 83.9946 40.4063C86.6115 44.9005 87.9199 50.1058 87.9199 56.0223C87.9199 61.8818 86.6115 67.0872 83.9946 71.6383C81.4346 76.1894 77.7653 79.7165 72.9866 82.2196C68.2648 84.7227 62.775 85.9743 56.5173 85.9743H34.0746V26.0703H56.5173ZM55.5786 73.345C61.0968 73.345 65.3919 71.8374 68.4639 68.8223C71.5359 65.8072 73.0719 61.5405 73.0719 56.0223C73.0719 50.5041 71.5359 46.209 68.4639 43.137C65.3919 40.065 61.0968 38.529 55.5786 38.529H48.6666V73.345H55.5786Z" fill="#32E0C4"/>
</g>
<mask id="mask1_29_5" style="mask-type:alpha" maskUnits="userSpaceOnUse" x="0" y="25" width="90" height="71">
<path d="M0 25.4071H64.4267V76.2212H89.1733L86.1867 95.0096H64.4267H0V25.4071Z" fill="#C4C4C4"/>
</mask>
<g mask="url(#mask1_29_5)">
<path d="M42.5813 75.4187H20.224L16.64 86H1.36533L23.04 26.096H39.936L61.6107 86H46.1653L42.5813 75.4187ZM38.8267 64.1547L31.4027 42.224L24.064 64.1547H38.8267Z" fill="white"/>
</g>
</svg>
