<?xml version="1.0" encoding="UTF-8" standalone="no"?>
<!-- Created with Inkscape (http://www.inkscape.org/) -->

<svg
   width="120"
   height="83"
   viewBox="0 0 120 83"
   version="1.1"
   id="svg5"
   inkscape:version="1.1.1 (3bf5ae0d25, 2021-09-20)"
   sodipodi:docname="logo_white.svg"
   xmlns:inkscape="http://www.inkscape.org/namespaces/inkscape"
   xmlns:sodipodi="http://sodipodi.sourceforge.net/DTD/sodipodi-0.dtd"
   xmlns="http://www.w3.org/2000/svg"
   xmlns:svg="http://www.w3.org/2000/svg">
  <sodipodi:namedview
     id="namedview7"
     pagecolor="#ffffff"
     bordercolor="#999999"
     borderopacity="1"
     inkscape:pageshadow="0"
     inkscape:pageopacity="0"
     inkscape:pagecheckerboard="0"
     inkscape:document-units="px"
     showgrid="false"
     inkscape:zoom="5.7666667"
     inkscape:cx="75.346821"
     inkscape:cy="45"
     inkscape:window-width="1536"
     inkscape:window-height="877"
     inkscape:window-x="56"
     inkscape:window-y="-8"
     inkscape:window-maximized="1"
     inkscape:current-layer="g5235"
     height="83px" />
  <defs
     id="defs2" />
  <g
     inkscape:label="Capa 1"
     inkscape:groupmode="layer"
     id="layer1">
    <text
       xml:space="preserve"
       style="font-style:normal;font-weight:normal;font-size:40px;line-height:1.25;font-family:sans-serif;fill:#000000;fill-opacity:1;stroke:none"
       x="11.035771"
       y="74.062279"
       id="text1440"><tspan
         sodipodi:role="line"
         id="tspan1438"
         x="11.035771"
         y="74.062279" /></text>
    <g
       id="g5235"
       transform="matrix(1.7930538,0,0,1.7930538,-66.406789,-51.484673)">
      <path
         style="fill:#212121;fill-opacity:1;stroke:none;stroke-width:0.12262"
         d="m 37.208399,74.339375 c 0.09197,-0.253562 0.387011,-1.01281 0.655638,-1.687218 0.268627,-0.674408 1.080455,-2.936741 1.804063,-5.027407 0.723609,-2.090665 1.357995,-3.856388 1.409748,-3.923829 0.05175,-0.06744 0.354686,-0.839945 0.673185,-1.716676 0.541279,-1.489976 0.87617,-2.450627 2.131311,-6.113781 0.274053,-0.799827 0.550336,-1.517152 0.613962,-1.594056 0.06363,-0.0769 0.33717,-0.774379 0.607876,-1.549948 0.270706,-0.775569 0.832083,-2.375756 1.247504,-3.55597 0.415422,-1.180215 0.908686,-2.589446 1.096143,-3.131626 0.187457,-0.54218 0.425768,-1.150033 0.529581,-1.350784 0.103813,-0.200752 0.476314,-1.191801 0.827782,-2.202331 0.351467,-1.010529 0.955235,-2.747778 1.341708,-3.860551 0.386474,-1.112774 0.904189,-2.519966 1.150478,-3.127094 0.24629,-0.607128 0.882089,-2.345261 1.412887,-3.862519 l 0.965087,-2.758651 6.456997,-0.03174 c 5.104221,-0.02509 6.467354,5.98e-4 6.506434,0.12262 0.02719,0.0849 0.360512,1.009632 0.740715,2.054965 1.71788,4.723155 2.017803,5.555488 2.562715,7.111941 0.318747,0.910451 0.79833,2.234744 1.065739,2.942872 0.714779,1.892815 1.563204,4.252784 2.622917,7.295871 0.516681,1.483698 1.042471,2.918348 1.168421,3.188111 0.22412,0.479988 0.38252,0.918418 1.59487,4.414308 0.61918,1.785415 1.54287,4.320724 2.18904,6.008364 0.20657,0.539527 0.64832,1.753462 0.98165,2.697633 0.33333,0.944172 0.91878,2.571948 1.301,3.617281 1.87588,5.130345 2.13372,5.848494 2.21228,6.161638 l 0.0846,0.337204 h -5.81585 -5.815857 l -1.347693,-4.077104 -1.347694,-4.077104 -8.709172,-0.03147 -8.709172,-0.03146 -0.332314,0.828493 c -0.182773,0.455672 -0.812454,2.290734 -1.399294,4.077916 l -1.066979,3.249421 -5.788762,0.03185 -5.788763,0.03185 z M 65.969384,58.085327 c 0,-0.103355 -0.99723,-3.00325 -1.10491,-3.213023 -0.06924,-0.134881 -0.810974,-2.314446 -1.648306,-4.843477 -2.427304,-7.331296 -3.06913,-9.115904 -3.211563,-8.92979 -0.06839,0.08937 -0.555267,1.486776 -1.081947,3.105356 -0.52668,1.618579 -1.000303,2.998051 -1.052494,3.065492 -0.05219,0.06744 -0.796976,2.302184 -1.655073,4.966096 -0.858097,2.663913 -1.635417,4.992479 -1.727376,5.174592 -0.381159,0.754832 -0.728632,0.711153 5.657235,0.711153 3.203439,0 5.824434,-0.01638 5.824434,-0.0364 z"
         id="path3632" />
      <path
         style="fill:#4a63d3;fill-opacity:1;stroke:none;stroke-width:0.123904"
         d="m 83.084852,74.702249 c -0.815903,-2.292482 -1.326699,-3.665385 -1.429518,-3.842211 -0.137,-0.235633 -1.714393,-4.672016 -1.817535,-5.111792 -0.05655,-0.240929 0.0061,-0.265033 0.876447,-0.338456 2.832511,-0.238904 5.442713,-1.258139 7.209052,-2.815 1.456031,-1.283342 1.927536,-1.881346 2.67631,-3.394302 0.708299,-1.431147 1.105806,-2.725731 1.501118,-4.88878 0.151456,-0.828699 0.06252,-5.014407 -0.115656,-5.445727 -0.07031,-0.170179 -0.223806,-0.747336 -0.34109,-1.282567 -0.649658,-2.96471 -2.402643,-5.581269 -4.802029,-7.16763 -1.304423,-0.862428 -3.556924,-1.633859 -6.051046,-2.07235 -0.375221,-0.06597 -2.286279,-0.120266 -4.246793,-0.12066 l -3.564569,-7.17e-4 -0.03264,4.239005 -0.03263,4.239004 -0.348653,-0.990133 C 72.373863,45.165361 71.994991,44.135004 71.723683,43.420252 71.266338,42.215388 70.179274,39.196954 68.80412,35.313543 68.490758,34.428612 68.13194,33.481797 68.00675,33.209511 67.881559,32.937225 67.471519,31.833 67.095549,30.755677 l -0.683581,-1.958768 8.026756,0.05094 c 7.42089,0.0471 8.148471,0.0706 9.639291,0.3114 4.095782,0.661551 6.873231,1.709943 9.923336,3.745711 1.329552,0.8874 2.051781,1.479558 3.081354,2.526425 1.643976,1.67158 2.294564,2.52356 3.348125,4.384578 1.96047,3.462982 2.79356,6.304922 3.05097,10.407838 0.23861,3.803113 -0.38994,8.32772 -1.48771,10.709417 -0.12551,0.272287 -0.42532,0.932538 -0.66624,1.467224 -0.8571,1.902142 -2.162096,3.883832 -3.55383,5.396643 -1.526206,1.658986 -1.942721,2.015358 -3.722615,3.18506 -2.769417,1.820004 -5.365366,2.89754 -8.561141,3.553588 -1.736648,0.356512 -2.323333,0.397125 -2.405404,0.166514 z"
         id="path5034" />
    </g>
  </g>
</svg>
